<?xml version="1.0" encoding="UTF-8"?><svg xmlns="http://www.w3.org/2000/svg" xmlns:xlink="http://www.w3.org/1999/xlink" fill-opacity="1" color-rendering="auto" color-interpolation="auto" text-rendering="auto" stroke="black" stroke-linecap="square" width="369" stroke-miterlimit="10" shape-rendering="auto" stroke-opacity="1" fill="black" stroke-dasharray="none" font-weight="normal" stroke-width="1" height="336" font-family="'Dialog'" font-style="normal" stroke-linejoin="miter" font-size="12px" stroke-dashoffset="0" image-rendering="auto">
  <!--Generated by ySVG 2.5-->
  <defs id="genericDefs"/>
  <g>
    <defs id="defs1">
      <clipPath clipPathUnits="userSpaceOnUse" id="clipPath1">
        <path d="M0 0 L369 0 L369 336 L0 336 L0 0 Z"/>
      </clipPath>
      <clipPath clipPathUnits="userSpaceOnUse" id="clipPath2">
        <path d="M197 94 L566 94 L566 430 L197 430 L197 94 Z"/>
      </clipPath>
    </defs>
    <g fill="white" text-rendering="geometricPrecision" shape-rendering="geometricPrecision" transform="translate(-197,-94)" stroke="white">
      <rect x="197" width="369" height="336" y="94" clip-path="url(#clipPath2)" stroke="none"/>
    </g>
    <g fill="rgb(255,204,0)" text-rendering="geometricPrecision" shape-rendering="geometricPrecision" transform="matrix(1,0,0,1,-197,-94)" stroke="rgb(255,204,0)">
      <ellipse rx="46.5" ry="46" clip-path="url(#clipPath2)" cx="372.5" cy="155" stroke="none"/>
    </g>
    <g text-rendering="geometricPrecision" stroke-miterlimit="1.45" shape-rendering="geometricPrecision" transform="matrix(1,0,0,1,-197,-94)" stroke-linecap="butt">
      <ellipse rx="46.5" fill="none" ry="46" clip-path="url(#clipPath2)" cx="372.5" cy="155"/>
      <text x="339.0234" font-size="16px" y="161.0469" clip-path="url(#clipPath2)" font-family="sans-serif" stroke="none" font-weight="bold" xml:space="preserve">Develop</text>
    </g>
    <g fill="rgb(255,204,0)" text-rendering="geometricPrecision" shape-rendering="geometricPrecision" transform="matrix(1,0,0,1,-197,-94)" stroke="rgb(255,204,0)">
      <ellipse rx="46.5" ry="46" clip-path="url(#clipPath2)" cx="504.5" cy="247" stroke="none"/>
    </g>
    <g text-rendering="geometricPrecision" stroke-miterlimit="1.45" shape-rendering="geometricPrecision" transform="matrix(1,0,0,1,-197,-94)" stroke-linecap="butt">
      <ellipse rx="46.5" fill="none" ry="46" clip-path="url(#clipPath2)" cx="504.5" cy="247"/>
      <text x="486.5273" font-size="16px" y="253.0469" clip-path="url(#clipPath2)" font-family="sans-serif" stroke="none" font-weight="bold" xml:space="preserve">Test</text>
    </g>
    <g fill="rgb(255,204,0)" text-rendering="geometricPrecision" shape-rendering="geometricPrecision" transform="matrix(1,0,0,1,-197,-94)" stroke="rgb(255,204,0)">
      <ellipse rx="46.5" ry="46" clip-path="url(#clipPath2)" cx="422.5" cy="369" stroke="none"/>
    </g>
    <g text-rendering="geometricPrecision" stroke-miterlimit="1.45" shape-rendering="geometricPrecision" transform="matrix(1,0,0,1,-197,-94)" stroke-linecap="butt">
      <ellipse rx="46.5" fill="none" ry="46" clip-path="url(#clipPath2)" cx="422.5" cy="369"/>
      <text x="393.793" font-size="16px" y="375.0469" clip-path="url(#clipPath2)" font-family="sans-serif" stroke="none" font-weight="bold" xml:space="preserve">Deploy</text>
    </g>
    <g fill="rgb(255,204,0)" text-rendering="geometricPrecision" shape-rendering="geometricPrecision" transform="matrix(1,0,0,1,-197,-94)" stroke="rgb(255,204,0)">
      <ellipse rx="46.5" ry="46" clip-path="url(#clipPath2)" cx="305.5" cy="369" stroke="none"/>
    </g>
    <g text-rendering="geometricPrecision" stroke-miterlimit="1.45" shape-rendering="geometricPrecision" transform="matrix(1,0,0,1,-197,-94)" stroke-linecap="butt">
      <ellipse rx="46.5" fill="none" ry="46" clip-path="url(#clipPath2)" cx="305.5" cy="369"/>
      <text x="273.2852" font-size="16px" y="375.0469" clip-path="url(#clipPath2)" font-family="sans-serif" stroke="none" font-weight="bold" xml:space="preserve">Monitor</text>
    </g>
    <g fill="rgb(255,204,0)" text-rendering="geometricPrecision" shape-rendering="geometricPrecision" transform="matrix(1,0,0,1,-197,-94)" stroke="rgb(255,204,0)">
      <ellipse rx="46.5" ry="46" clip-path="url(#clipPath2)" cx="258.5" cy="247" stroke="none"/>
    </g>
    <g text-rendering="geometricPrecision" stroke-miterlimit="1.45" shape-rendering="geometricPrecision" transform="matrix(1,0,0,1,-197,-94)" stroke-linecap="butt">
      <ellipse rx="46.5" fill="none" ry="46" clip-path="url(#clipPath2)" cx="258.5" cy="247"/>
      <text x="225.9727" font-size="16px" y="253.0469" clip-path="url(#clipPath2)" font-family="sans-serif" stroke="none" font-weight="bold" xml:space="preserve">Analyze</text>
      <path fill="none" d="M410.5129 181.4939 L459.9239 215.9318" clip-path="url(#clipPath2)"/>
      <path d="M466.4871 220.5061 L459.5013 209.5426 L459.1035 215.36 L453.7833 217.7466 Z" clip-path="url(#clipPath2)" stroke="none"/>
      <path fill="none" d="M478.7537 285.3055 L452.709 324.0549" clip-path="url(#clipPath2)"/>
      <path d="M448.2463 330.6945 L459.0901 323.5243 L453.2668 323.225 L450.7906 317.946 Z" clip-path="url(#clipPath2)" stroke="none"/>
      <path fill="none" d="M376 369 L360 369" clip-path="url(#clipPath2)"/>
      <path d="M352 369 L364 374 L361 369 L364 364 Z" clip-path="url(#clipPath2)" stroke="none"/>
      <path fill="none" d="M288.9405 326.0157 L277.9355 297.4495" clip-path="url(#clipPath2)"/>
      <path d="M275.0595 289.9843 L274.7077 302.9795 L278.295 298.3826 L284.0392 299.3846 Z" clip-path="url(#clipPath2)" stroke="none"/>
      <path fill="none" d="M294.5312 217.9222 L330.2432 189.102" clip-path="url(#clipPath2)"/>
      <path d="M336.4688 184.0778 L323.9903 187.7231 L329.465 189.73 L330.2705 195.5051 Z" clip-path="url(#clipPath2)" stroke="none"/>
    </g>
  </g>
</svg>
