<?xml version="1.0" encoding="UTF-8"?><svg xmlns="http://www.w3.org/2000/svg" xmlns:xlink="http://www.w3.org/1999/xlink" fill-opacity="1" color-rendering="auto" color-interpolation="auto" text-rendering="auto" stroke="black" stroke-linecap="square" width="590" stroke-miterlimit="10" shape-rendering="auto" stroke-opacity="1" fill="black" stroke-dasharray="none" font-weight="normal" stroke-width="1" height="165" font-family="'Dialog'" font-style="normal" stroke-linejoin="miter" font-size="12px" stroke-dashoffset="0" image-rendering="auto">
  <!--Generated by ySVG 2.5-->
  <defs id="genericDefs"/>
  <g>
    <defs id="defs1">
      <clipPath clipPathUnits="userSpaceOnUse" id="clipPath1">
        <path d="M0 0 L590 0 L590 165 L0 165 L0 0 Z"/>
      </clipPath>
      <clipPath clipPathUnits="userSpaceOnUse" id="clipPath2">
        <path d="M171 105 L761 105 L761 270 L171 270 L171 105 Z"/>
      </clipPath>
    </defs>
    <g fill="white" text-rendering="geometricPrecision" shape-rendering="geometricPrecision" transform="translate(-171,-105)" stroke="white">
      <rect x="171" width="590" height="165" y="105" clip-path="url(#clipPath2)" stroke="none"/>
    </g>
    <g fill="rgb(255,204,0)" text-rendering="geometricPrecision" shape-rendering="geometricPrecision" transform="matrix(1,0,0,1,-171,-105)" stroke="rgb(255,204,0)">
      <path d="M186 120 L338.9999 120 L356 187.5 L338.9999 255 L186 255 L203.0002 187.5 Z" fill-rule="evenodd" clip-path="url(#clipPath2)" stroke="none"/>
    </g>
    <g text-rendering="geometricPrecision" stroke-miterlimit="1.45" shape-rendering="geometricPrecision" transform="matrix(1,0,0,1,-171,-105)" stroke-linecap="butt">
      <path fill="none" d="M186 120 L338.9999 120 L356 187.5 L338.9999 255 L186 255 L203.0002 187.5 Z" fill-rule="evenodd" clip-path="url(#clipPath2)"/>
      <text x="217.7866" font-size="18px" y="183.7031" clip-path="url(#clipPath2)" font-family="sans-serif" stroke="none" font-weight="bold" xml:space="preserve">Continuous</text>
      <text x="219.6323" font-size="18px" y="204.9023" clip-path="url(#clipPath2)" font-family="sans-serif" stroke="none" font-weight="bold" xml:space="preserve">Integration</text>
    </g>
    <g fill="rgb(255,204,0)" text-rendering="geometricPrecision" shape-rendering="geometricPrecision" transform="matrix(1,0,0,1,-171,-105)" stroke="rgb(255,204,0)">
      <path d="M381 120 L534 120 L551 187.5 L534 255 L381 255 L398 187.5 Z" fill-rule="evenodd" clip-path="url(#clipPath2)" stroke="none"/>
    </g>
    <g text-rendering="geometricPrecision" stroke-miterlimit="1.45" shape-rendering="geometricPrecision" transform="matrix(1,0,0,1,-171,-105)" stroke-linecap="butt">
      <path fill="none" d="M381 120 L534 120 L551 187.5 L534 255 L381 255 L398 187.5 Z" fill-rule="evenodd" clip-path="url(#clipPath2)"/>
      <text x="412.7866" font-size="18px" y="183.7031" clip-path="url(#clipPath2)" font-family="sans-serif" stroke="none" font-weight="bold" xml:space="preserve">Continuous</text>
      <text x="427.7852" font-size="18px" y="204.9023" clip-path="url(#clipPath2)" font-family="sans-serif" stroke="none" font-weight="bold" xml:space="preserve">Delivery</text>
    </g>
    <g fill="rgb(255,204,0)" text-rendering="geometricPrecision" shape-rendering="geometricPrecision" transform="matrix(1,0,0,1,-171,-105)" stroke="rgb(255,204,0)">
      <path d="M576 120 L729 120 L746 187.5 L729 255 L576 255 L593 187.5 Z" fill-rule="evenodd" clip-path="url(#clipPath2)" stroke="none"/>
    </g>
    <g text-rendering="geometricPrecision" stroke-miterlimit="1.45" shape-rendering="geometricPrecision" transform="matrix(1,0,0,1,-171,-105)" stroke-linecap="butt">
      <path fill="none" d="M576 120 L729 120 L746 187.5 L729 255 L576 255 L593 187.5 Z" fill-rule="evenodd" clip-path="url(#clipPath2)"/>
      <text x="607.7866" font-size="18px" y="183.7031" clip-path="url(#clipPath2)" font-family="sans-serif" stroke="none" font-weight="bold" xml:space="preserve">Continuous</text>
      <text x="605.1455" font-size="18px" y="204.9023" clip-path="url(#clipPath2)" font-family="sans-serif" stroke="none" font-weight="bold" xml:space="preserve">Deployment</text>
    </g>
  </g>
</svg>
