<?xml version="1.0" encoding="UTF-8"?><svg xmlns="http://www.w3.org/2000/svg" xmlns:xlink="http://www.w3.org/1999/xlink" fill-opacity="1" color-rendering="auto" color-interpolation="auto" text-rendering="auto" stroke="black" stroke-linecap="square" width="580" stroke-miterlimit="10" shape-rendering="auto" stroke-opacity="1" fill="black" stroke-dasharray="none" font-weight="normal" stroke-width="1" height="249" font-family="'Dialog'" font-style="normal" stroke-linejoin="miter" font-size="12px" stroke-dashoffset="0" image-rendering="auto">
  <!--Generated by ySVG 2.5-->
  <defs id="genericDefs"/>
  <g>
    <defs id="defs1">
      <clipPath clipPathUnits="userSpaceOnUse" id="clipPath1">
        <path d="M0 0 L580 0 L580 249 L0 249 L0 0 Z"/>
      </clipPath>
      <clipPath clipPathUnits="userSpaceOnUse" id="clipPath2">
        <path d="M63 115 L643 115 L643 364 L63 364 L63 115 Z"/>
      </clipPath>
    </defs>
    <g fill="white" text-rendering="geometricPrecision" shape-rendering="geometricPrecision" transform="translate(-63,-115)" stroke="white">
      <rect x="63" width="580" height="249" y="115" clip-path="url(#clipPath2)" stroke="none"/>
    </g>
    <g fill="rgb(255,204,0)" text-rendering="geometricPrecision" shape-rendering="geometricPrecision" transform="matrix(1,0,0,1,-63,-115)" stroke="rgb(255,204,0)">
      <path d="M211 130 L586.2994 130 L628 164.5 L586.2994 199 L211 199 L252.6999 164.5 Z" fill-rule="evenodd" clip-path="url(#clipPath2)" stroke="none"/>
    </g>
    <g text-rendering="geometricPrecision" stroke-miterlimit="1.45" shape-rendering="geometricPrecision" transform="matrix(1,0,0,1,-63,-115)" stroke-linecap="butt">
      <path fill="none" d="M211 130 L586.2994 130 L628 164.5 L586.2994 199 L211 199 L252.6999 164.5 Z" fill-rule="evenodd" clip-path="url(#clipPath2)"/>
      <text x="366.2866" font-size="18px" y="160.7031" clip-path="url(#clipPath2)" font-family="sans-serif" stroke="none" font-weight="bold" xml:space="preserve">Continuous</text>
      <text x="368.1323" font-size="18px" y="181.9023" clip-path="url(#clipPath2)" font-family="sans-serif" stroke="none" font-weight="bold" xml:space="preserve">Integration</text>
    </g>
    <g fill="rgb(255,204,0)" text-rendering="geometricPrecision" shape-rendering="geometricPrecision" transform="matrix(1,0,0,1,-63,-115)" stroke="rgb(255,204,0)">
      <path d="M131 264 L139.9549 248.6242 L158.5771 253.895 L152.6187 237.4216 L170 229.5 L152.6187 221.5784 L158.5771 205.105 L139.9549 210.3758 L131 195 L122.0452 210.3758 L103.4228 205.105 L109.3812 221.5784 L92 229.5 L109.3812 237.4216 L103.4228 253.895 L122.0452 248.6242 Z" fill-rule="evenodd" clip-path="url(#clipPath2)" stroke="none"/>
    </g>
    <g text-rendering="geometricPrecision" stroke-miterlimit="1.45" shape-rendering="geometricPrecision" transform="matrix(1,0,0,1,-63,-115)" stroke-linecap="butt">
      <path fill="none" d="M131 264 L139.9549 248.6242 L158.5771 253.895 L152.6187 237.4216 L170 229.5 L152.6187 221.5784 L158.5771 205.105 L139.9549 210.3758 L131 195 L122.0452 210.3758 L103.4228 205.105 L109.3812 221.5784 L92 229.5 L109.3812 237.4216 L103.4228 253.895 L122.0452 248.6242 Z" fill-rule="evenodd" clip-path="url(#clipPath2)"/>
      <text x="80.0508" font-size="16px" y="281.625" clip-path="url(#clipPath2)" font-family="sans-serif" stroke="none" font-weight="bold" xml:space="preserve">Source Code</text>
      <text x="98.832" font-size="16px" y="300.4688" clip-path="url(#clipPath2)" font-family="sans-serif" stroke="none" font-weight="bold" xml:space="preserve">Commit</text>
    </g>
    <g fill="rgb(255,204,0)" text-rendering="geometricPrecision" shape-rendering="geometricPrecision" transform="matrix(1,0,0,1,-63,-115)" stroke="rgb(255,204,0)">
      <path d="M337 210 L453.9996 210 L467 229.5 L453.9996 249 L337 249 L350.0003 229.5 Z" fill-rule="evenodd" clip-path="url(#clipPath2)" stroke="none"/>
    </g>
    <g text-rendering="geometricPrecision" stroke-miterlimit="1.45" shape-rendering="geometricPrecision" transform="matrix(1,0,0,1,-63,-115)" stroke-linecap="butt">
      <path fill="none" d="M337 210 L453.9996 210 L467 229.5 L453.9996 249 L337 249 L350.0003 229.5 Z" fill-rule="evenodd" clip-path="url(#clipPath2)"/>
      <text x="352.0195" font-size="16px" y="235.5469" clip-path="url(#clipPath2)" font-family="sans-serif" stroke="none" font-weight="bold" xml:space="preserve">Compilation</text>
    </g>
    <g fill="rgb(255,204,0)" text-rendering="geometricPrecision" shape-rendering="geometricPrecision" transform="matrix(1,0,0,1,-63,-115)" stroke="rgb(255,204,0)">
      <path d="M467 210 L583.9999 210 L597 229.5 L583.9999 249 L467 249 L480.0001 229.5 Z" fill-rule="evenodd" clip-path="url(#clipPath2)" stroke="none"/>
    </g>
    <g text-rendering="geometricPrecision" stroke-miterlimit="1.45" shape-rendering="geometricPrecision" transform="matrix(1,0,0,1,-63,-115)" stroke-linecap="butt">
      <path fill="none" d="M467 210 L583.9999 210 L597 229.5 L583.9999 249 L467 249 L480.0001 229.5 Z" fill-rule="evenodd" clip-path="url(#clipPath2)"/>
      <text x="509.5039" font-size="16px" y="235.5469" clip-path="url(#clipPath2)" font-family="sans-serif" stroke="none" font-weight="bold" xml:space="preserve">Tests</text>
    </g>
    <g fill="rgb(255,204,0)" text-rendering="geometricPrecision" shape-rendering="geometricPrecision" transform="matrix(1,0,0,1,-63,-115)" stroke="rgb(255,204,0)">
      <path d="M211 210 L328 210 L341 229.5 L328 249 L211 249 L224 229.5 Z" fill-rule="evenodd" clip-path="url(#clipPath2)" stroke="none"/>
    </g>
    <g text-rendering="geometricPrecision" stroke-miterlimit="1.45" shape-rendering="geometricPrecision" transform="matrix(1,0,0,1,-63,-115)" stroke-linecap="butt">
      <path fill="none" d="M211 210 L328 210 L341 229.5 L328 249 L211 249 L224 229.5 Z" fill-rule="evenodd" clip-path="url(#clipPath2)"/>
      <text x="236.6602" font-size="16px" y="235.5469" clip-path="url(#clipPath2)" font-family="sans-serif" stroke="none" font-weight="bold" xml:space="preserve">Code Gen</text>
    </g>
    <g fill="rgb(255,204,0)" text-rendering="geometricPrecision" shape-rendering="geometricPrecision" transform="matrix(1,0,0,1,-63,-115)" stroke="rgb(255,204,0)">
      <path d="M467 260 L584 260 L597 279.5 L584 299 L467 299 L480 279.5 Z" fill-rule="evenodd" clip-path="url(#clipPath2)" stroke="none"/>
    </g>
    <g text-rendering="geometricPrecision" stroke-miterlimit="1.45" shape-rendering="geometricPrecision" transform="matrix(1,0,0,1,-63,-115)" stroke-linecap="butt">
      <path fill="none" d="M467 260 L584 260 L597 279.5 L584 299 L467 299 L480 279.5 Z" fill-rule="evenodd" clip-path="url(#clipPath2)"/>
      <text x="507.9258" font-size="16px" y="285.5469" clip-path="url(#clipPath2)" font-family="sans-serif" stroke="none" font-weight="bold" xml:space="preserve">Linter</text>
    </g>
    <g fill="rgb(255,204,0)" text-rendering="geometricPrecision" shape-rendering="geometricPrecision" transform="matrix(1,0,0,1,-63,-115)" stroke="rgb(255,204,0)">
      <path d="M467 310 L584 310 L597 329.5 L584 349 L467 349 L480 329.5 Z" fill-rule="evenodd" clip-path="url(#clipPath2)" stroke="none"/>
    </g>
    <g text-rendering="geometricPrecision" stroke-miterlimit="1.45" shape-rendering="geometricPrecision" transform="matrix(1,0,0,1,-63,-115)" stroke-linecap="butt">
      <path fill="none" d="M467 310 L584 310 L597 329.5 L584 349 L467 349 L480 329.5 Z" fill-rule="evenodd" clip-path="url(#clipPath2)"/>
      <text x="478.3555" font-size="16px" y="335.5469" clip-path="url(#clipPath2)" font-family="sans-serif" stroke="none" font-weight="bold" xml:space="preserve">Code Metrics</text>
    </g>
  </g>
</svg>
