<?xml version="1.0" encoding="UTF-8"?><svg xmlns="http://www.w3.org/2000/svg" xmlns:xlink="http://www.w3.org/1999/xlink" fill-opacity="1" color-rendering="auto" color-interpolation="auto" text-rendering="auto" stroke="black" stroke-linecap="square" width="441" stroke-miterlimit="10" shape-rendering="auto" stroke-opacity="1" fill="black" stroke-dasharray="none" font-weight="normal" stroke-width="1" height="467" font-family="'Dialog'" font-style="normal" stroke-linejoin="miter" font-size="12px" stroke-dashoffset="0" image-rendering="auto">
  <!--Generated by ySVG 2.5-->
  <defs id="genericDefs"/>
  <g>
    <defs id="defs1">
      <clipPath clipPathUnits="userSpaceOnUse" id="clipPath1">
        <path d="M0 0 L441 0 L441 467 L0 467 L0 0 Z"/>
      </clipPath>
      <clipPath clipPathUnits="userSpaceOnUse" id="clipPath2">
        <path d="M82 9 L523 9 L523 476 L82 476 L82 9 Z"/>
      </clipPath>
      <clipPath clipPathUnits="userSpaceOnUse" id="clipPath3">
        <path d="M305.1094 -18.5781 L305.1094 422.4219 L-161.8906 422.4219 L-161.8906 -18.5781 L305.1094 -18.5781 Z"/>
      </clipPath>
      <clipPath clipPathUnits="userSpaceOnUse" id="clipPath4">
        <path d="M406.901 -399.567 L406.901 41.433 L-60.099 41.433 L-60.099 -399.567 L406.901 -399.567 Z"/>
      </clipPath>
      <clipPath clipPathUnits="userSpaceOnUse" id="clipPath5">
        <path d="M205.1094 -204.5781 L205.1094 236.4219 L-261.8906 236.4219 L-261.8906 -204.5781 L205.1094 -204.5781 Z"/>
      </clipPath>
    </defs>
    <g fill="white" text-rendering="geometricPrecision" shape-rendering="geometricPrecision" transform="translate(-82,-9)" stroke="white">
      <rect x="82" width="441" height="467" y="9" clip-path="url(#clipPath2)" stroke="none"/>
    </g>
    <g fill="rgb(255,204,0)" text-rendering="geometricPrecision" shape-rendering="geometricPrecision" transform="matrix(1,0,0,1,-82,-9)" stroke="rgb(255,204,0)">
      <rect x="145" width="133" height="34" y="87" clip-path="url(#clipPath2)" stroke="none"/>
    </g>
    <g font-size="16px" stroke-linecap="butt" transform="matrix(1,0,0,1,-82,-9)" text-rendering="geometricPrecision" font-family="sans-serif" shape-rendering="geometricPrecision" stroke-miterlimit="1.45">
      <text x="163.5078" xml:space="preserve" y="110.0469" clip-path="url(#clipPath2)" stroke="none">Applications</text>
      <rect fill="none" x="145" width="133" height="34" y="87" clip-path="url(#clipPath2)"/>
    </g>
    <g fill="rgb(255,204,0)" text-rendering="geometricPrecision" shape-rendering="geometricPrecision" transform="matrix(1,0,0,1,-82,-9)" stroke="rgb(255,204,0)">
      <rect x="145" width="133" height="34" y="127" clip-path="url(#clipPath2)" stroke="none"/>
    </g>
    <g font-size="16px" stroke-linecap="butt" transform="matrix(1,0,0,1,-82,-9)" text-rendering="geometricPrecision" font-family="sans-serif" shape-rendering="geometricPrecision" stroke-miterlimit="1.45">
      <text x="175.2031" xml:space="preserve" y="150.0469" clip-path="url(#clipPath2)" stroke="none">Runtimes</text>
      <rect fill="none" x="145" width="133" height="34" y="127" clip-path="url(#clipPath2)"/>
    </g>
    <g fill="rgb(255,204,0)" text-rendering="geometricPrecision" shape-rendering="geometricPrecision" transform="matrix(1,0,0,1,-82,-9)" stroke="rgb(255,204,0)">
      <rect x="145" width="133" height="34" y="167" clip-path="url(#clipPath2)" stroke="none"/>
    </g>
    <g font-size="16px" stroke-linecap="butt" transform="matrix(1,0,0,1,-82,-9)" text-rendering="geometricPrecision" font-family="sans-serif" shape-rendering="geometricPrecision" stroke-miterlimit="1.45">
      <text x="180.9141" xml:space="preserve" y="190.0469" clip-path="url(#clipPath2)" stroke="none">Security</text>
      <rect fill="none" x="145" width="133" height="34" y="167" clip-path="url(#clipPath2)"/>
    </g>
    <g fill="rgb(255,204,0)" text-rendering="geometricPrecision" shape-rendering="geometricPrecision" transform="matrix(1,0,0,1,-82,-9)" stroke="rgb(255,204,0)">
      <rect x="145" width="133" height="34" y="207" clip-path="url(#clipPath2)" stroke="none"/>
    </g>
    <g font-size="16px" stroke-linecap="butt" transform="matrix(1,0,0,1,-82,-9)" text-rendering="geometricPrecision" font-family="sans-serif" shape-rendering="geometricPrecision" stroke-miterlimit="1.45">
      <text x="171.6133" xml:space="preserve" y="230.0469" clip-path="url(#clipPath2)" stroke="none">Databases</text>
      <rect fill="none" x="145" width="133" height="34" y="207" clip-path="url(#clipPath2)"/>
    </g>
    <g fill="rgb(255,204,0)" text-rendering="geometricPrecision" shape-rendering="geometricPrecision" transform="matrix(1,0,0,1,-82,-9)" stroke="rgb(255,204,0)">
      <rect x="145" width="133" height="34" y="247" clip-path="url(#clipPath2)" stroke="none"/>
    </g>
    <g font-size="16px" stroke-linecap="butt" transform="matrix(1,0,0,1,-82,-9)" text-rendering="geometricPrecision" font-family="sans-serif" shape-rendering="geometricPrecision" stroke-miterlimit="1.45">
      <text x="183.5117" xml:space="preserve" y="270.0469" clip-path="url(#clipPath2)" stroke="none">Servers</text>
      <rect fill="none" x="145" width="133" height="34" y="247" clip-path="url(#clipPath2)"/>
    </g>
    <g fill="rgb(255,204,0)" text-rendering="geometricPrecision" shape-rendering="geometricPrecision" transform="matrix(1,0,0,1,-82,-9)" stroke="rgb(255,204,0)">
      <rect x="145" width="133" height="34" y="287" clip-path="url(#clipPath2)" stroke="none"/>
    </g>
    <g font-size="16px" stroke-linecap="butt" transform="matrix(1,0,0,1,-82,-9)" text-rendering="geometricPrecision" font-family="sans-serif" shape-rendering="geometricPrecision" stroke-miterlimit="1.45">
      <text x="159.4961" xml:space="preserve" y="310.0469" clip-path="url(#clipPath2)" stroke="none">Virtualization</text>
      <rect fill="none" x="145" width="133" height="34" y="287" clip-path="url(#clipPath2)"/>
    </g>
    <g fill="rgb(255,204,0)" text-rendering="geometricPrecision" shape-rendering="geometricPrecision" transform="matrix(1,0,0,1,-82,-9)" stroke="rgb(255,204,0)">
      <rect x="145" width="133" height="34" y="327" clip-path="url(#clipPath2)" stroke="none"/>
    </g>
    <g font-size="16px" stroke-linecap="butt" transform="matrix(1,0,0,1,-82,-9)" text-rendering="geometricPrecision" font-family="sans-serif" shape-rendering="geometricPrecision" stroke-miterlimit="1.45">
      <text x="174.582" xml:space="preserve" y="350.0469" clip-path="url(#clipPath2)" stroke="none">Hardware</text>
      <rect fill="none" x="145" width="133" height="34" y="327" clip-path="url(#clipPath2)"/>
    </g>
    <g fill="rgb(255,204,0)" text-rendering="geometricPrecision" shape-rendering="geometricPrecision" transform="matrix(1,0,0,1,-82,-9)" stroke="rgb(255,204,0)">
      <rect x="145" width="133" height="34" y="367" clip-path="url(#clipPath2)" stroke="none"/>
    </g>
    <g font-size="16px" stroke-linecap="butt" transform="matrix(1,0,0,1,-82,-9)" text-rendering="geometricPrecision" font-family="sans-serif" shape-rendering="geometricPrecision" stroke-miterlimit="1.45">
      <text x="182.1484" xml:space="preserve" y="390.0469" clip-path="url(#clipPath2)" stroke="none">Storage</text>
      <rect fill="none" x="145" width="133" height="34" y="367" clip-path="url(#clipPath2)"/>
    </g>
    <g fill="rgb(255,204,0)" text-rendering="geometricPrecision" shape-rendering="geometricPrecision" transform="matrix(1,0,0,1,-82,-9)" stroke="rgb(255,204,0)">
      <rect x="145" width="133" height="34" y="407" clip-path="url(#clipPath2)" stroke="none"/>
    </g>
    <g font-size="16px" stroke-linecap="butt" transform="matrix(1,0,0,1,-82,-9)" text-rendering="geometricPrecision" font-family="sans-serif" shape-rendering="geometricPrecision" stroke-miterlimit="1.45">
      <text x="166.8477" xml:space="preserve" y="430.0469" clip-path="url(#clipPath2)" stroke="none">Networking</text>
      <rect fill="none" x="145" width="133" height="34" y="407" clip-path="url(#clipPath2)"/>
    </g>
    <g font-size="16px" stroke-linecap="butt" transform="matrix(-0,-1,1,-0,18.5781,305.1094)" text-rendering="geometricPrecision" font-family="sans-serif" shape-rendering="geometricPrecision" stroke-miterlimit="1.45">
      <text x="2" xml:space="preserve" y="17.4688" clip-path="url(#clipPath3)" stroke="none">You manage</text>
    </g>
    <g font-size="16px" stroke-linecap="butt" transform="matrix(1,0,0,1,-82,-9)" text-rendering="geometricPrecision" font-family="sans-serif" shape-rendering="geometricPrecision" stroke-miterlimit="1.45">
      <text x="176.9844" xml:space="preserve" y="41.8765" clip-path="url(#clipPath2)" stroke="none">Private</text>
      <text x="151.5195" xml:space="preserve" y="60.7202" clip-path="url(#clipPath2)" stroke="none">(On-Premise)</text>
    </g>
    <g font-size="15px" stroke-linecap="butt" transform="matrix(-0,-1,1,-0,399.567,406.901)" text-rendering="geometricPrecision" font-family="sans-serif" shape-rendering="geometricPrecision" stroke-miterlimit="1.45">
      <text x="2" xml:space="preserve" y="16.502" clip-path="url(#clipPath4)" stroke="none">Vendor manage</text>
    </g>
    <g font-size="16px" stroke-linecap="butt" transform="matrix(1,0,0,1,-82,-9)" text-rendering="geometricPrecision" font-family="sans-serif" shape-rendering="geometricPrecision" stroke-miterlimit="1.45">
      <text x="331.0039" xml:space="preserve" y="41.8765" clip-path="url(#clipPath2)" stroke="none">Infrastructure</text>
      <text x="333.7734" xml:space="preserve" y="60.7202" clip-path="url(#clipPath2)" stroke="none">(as a Service)</text>
    </g>
    <g font-size="16px" stroke-linecap="butt" transform="matrix(-0,-1,1,-0,204.5781,205.1094)" text-rendering="geometricPrecision" font-family="sans-serif" shape-rendering="geometricPrecision" stroke-miterlimit="1.45">
      <text x="2" xml:space="preserve" y="17.4688" clip-path="url(#clipPath5)" stroke="none">You manage</text>
    </g>
    <g font-size="16px" stroke-linecap="butt" transform="matrix(1,0,0,1,-82,-9)" text-rendering="geometricPrecision" font-family="sans-serif" shape-rendering="geometricPrecision" stroke-miterlimit="1.45">
      <text x="347.8477" xml:space="preserve" y="430.0469" clip-path="url(#clipPath2)" stroke="none">Networking</text>
      <rect fill="none" x="326" width="133" height="34" y="407" clip-path="url(#clipPath2)"/>
      <text x="363.1484" xml:space="preserve" y="390.0469" clip-path="url(#clipPath2)" stroke="none">Storage</text>
      <rect fill="none" x="326" width="133" height="34" y="367" clip-path="url(#clipPath2)"/>
      <text x="355.582" xml:space="preserve" y="350.0469" clip-path="url(#clipPath2)" stroke="none">Hardware</text>
      <rect fill="none" x="326" width="133" height="34" y="327" clip-path="url(#clipPath2)"/>
      <text x="340.4961" xml:space="preserve" y="310.0469" clip-path="url(#clipPath2)" stroke="none">Virtualization</text>
      <rect fill="none" x="326" width="133" height="34" y="287" clip-path="url(#clipPath2)"/>
      <text x="364.5117" xml:space="preserve" y="270.0469" clip-path="url(#clipPath2)" stroke="none">Servers</text>
      <rect fill="none" x="326" width="133" height="34" y="247" clip-path="url(#clipPath2)"/>
    </g>
    <g fill="rgb(255,204,0)" text-rendering="geometricPrecision" shape-rendering="geometricPrecision" transform="matrix(1,0,0,1,-82,-9)" stroke="rgb(255,204,0)">
      <rect x="326" width="133" height="34" y="207" clip-path="url(#clipPath2)" stroke="none"/>
    </g>
    <g font-size="16px" stroke-linecap="butt" transform="matrix(1,0,0,1,-82,-9)" text-rendering="geometricPrecision" font-family="sans-serif" shape-rendering="geometricPrecision" stroke-miterlimit="1.45">
      <text x="352.6133" xml:space="preserve" y="230.0469" clip-path="url(#clipPath2)" stroke="none">Databases</text>
      <rect fill="none" x="326" width="133" height="34" y="207" clip-path="url(#clipPath2)"/>
    </g>
    <g fill="rgb(255,204,0)" text-rendering="geometricPrecision" shape-rendering="geometricPrecision" transform="matrix(1,0,0,1,-82,-9)" stroke="rgb(255,204,0)">
      <rect x="326" width="133" height="34" y="167" clip-path="url(#clipPath2)" stroke="none"/>
    </g>
    <g font-size="16px" stroke-linecap="butt" transform="matrix(1,0,0,1,-82,-9)" text-rendering="geometricPrecision" font-family="sans-serif" shape-rendering="geometricPrecision" stroke-miterlimit="1.45">
      <text x="361.9141" xml:space="preserve" y="190.0469" clip-path="url(#clipPath2)" stroke="none">Security</text>
      <rect fill="none" x="326" width="133" height="34" y="167" clip-path="url(#clipPath2)"/>
    </g>
    <g fill="rgb(255,204,0)" text-rendering="geometricPrecision" shape-rendering="geometricPrecision" transform="matrix(1,0,0,1,-82,-9)" stroke="rgb(255,204,0)">
      <rect x="326" width="133" height="34" y="127" clip-path="url(#clipPath2)" stroke="none"/>
    </g>
    <g font-size="16px" stroke-linecap="butt" transform="matrix(1,0,0,1,-82,-9)" text-rendering="geometricPrecision" font-family="sans-serif" shape-rendering="geometricPrecision" stroke-miterlimit="1.45">
      <text x="356.2031" xml:space="preserve" y="150.0469" clip-path="url(#clipPath2)" stroke="none">Runtimes</text>
      <rect fill="none" x="326" width="133" height="34" y="127" clip-path="url(#clipPath2)"/>
    </g>
    <g fill="rgb(255,204,0)" text-rendering="geometricPrecision" shape-rendering="geometricPrecision" transform="matrix(1,0,0,1,-82,-9)" stroke="rgb(255,204,0)">
      <rect x="326" width="133" height="34" y="87" clip-path="url(#clipPath2)" stroke="none"/>
    </g>
    <g font-size="16px" stroke-linecap="butt" transform="matrix(1,0,0,1,-82,-9)" text-rendering="geometricPrecision" font-family="sans-serif" shape-rendering="geometricPrecision" stroke-miterlimit="1.45">
      <text x="344.5078" xml:space="preserve" y="110.0469" clip-path="url(#clipPath2)" stroke="none">Applications</text>
      <rect fill="none" x="326" width="133" height="34" y="87" clip-path="url(#clipPath2)"/>
      <path fill="none" d="M127 264 L132 264 L132 82 L149 82" clip-path="url(#clipPath2)"/>
      <path fill="none" d="M127 264 L132 264 L132 446 L149 446" clip-path="url(#clipPath2)"/>
      <path fill="none" d="M477.4 356.6 L469.2385 356.6 L469.2385 446 L459 446" clip-path="url(#clipPath2)"/>
      <path fill="none" d="M464.2769 246 L469.2385 246 L469.2385 356.6 L477.4 356.6" clip-path="url(#clipPath2)"/>
      <path fill="none" d="M313 164 L314 164 L314 242 L318 242" clip-path="url(#clipPath2)"/>
      <path fill="none" d="M313 164 L314.1738 164 L314.1738 82 L330 82" clip-path="url(#clipPath2)"/>
    </g>
  </g>
</svg>
