<?xml version="1.0" encoding="UTF-8"?><svg xmlns="http://www.w3.org/2000/svg" xmlns:xlink="http://www.w3.org/1999/xlink" fill-opacity="1" color-rendering="auto" color-interpolation="auto" text-rendering="auto" stroke="black" stroke-linecap="square" width="368" stroke-miterlimit="10" shape-rendering="auto" stroke-opacity="1" fill="black" stroke-dasharray="none" font-weight="normal" stroke-width="1" height="447" font-family="'Dialog'" font-style="normal" stroke-linejoin="miter" font-size="12px" stroke-dashoffset="0" image-rendering="auto">
  <!--Generated by ySVG 2.5-->
  <defs id="genericDefs"/>
  <g>
    <defs id="defs1">
      <clipPath clipPathUnits="userSpaceOnUse" id="clipPath1">
        <path d="M0 0 L368 0 L368 447 L0 447 L0 0 Z"/>
      </clipPath>
      <clipPath clipPathUnits="userSpaceOnUse" id="clipPath2">
        <path d="M142 196 L510 196 L510 643 L142 643 L142 196 Z"/>
      </clipPath>
    </defs>
    <g fill="white" text-rendering="geometricPrecision" shape-rendering="geometricPrecision" transform="translate(-142,-196)" stroke="white">
      <rect x="142" width="368" height="447" y="196" clip-path="url(#clipPath2)" stroke="none"/>
    </g>
    <g fill="rgb(255,204,0)" text-rendering="geometricPrecision" shape-rendering="geometricPrecision" transform="matrix(1,0,0,1,-142,-196)" stroke="rgb(255,204,0)">
      <path d="M326 248.5 L495 588.5 L157 588.5 Z" fill-rule="evenodd" clip-path="url(#clipPath2)" stroke="none"/>
    </g>
    <g text-rendering="geometricPrecision" stroke-miterlimit="1.45" shape-rendering="geometricPrecision" transform="matrix(1,0,0,1,-142,-196)" stroke-linecap="butt">
      <path fill="none" d="M326 248.5 L495 588.5 L157 588.5 Z" fill-rule="evenodd" clip-path="url(#clipPath2)"/>
    </g>
    <g fill="rgb(255,204,0)" text-rendering="geometricPrecision" shape-rendering="geometricPrecision" transform="matrix(1,0,0,1,-142,-196)" stroke="rgb(255,204,0)">
      <rect x="157" width="338" height="60" y="433" clip-path="url(#clipPath2)" stroke="none"/>
    </g>
    <g text-rendering="geometricPrecision" stroke-miterlimit="1.45" shape-rendering="geometricPrecision" transform="matrix(1,0,0,1,-142,-196)" stroke-linecap="butt">
      <rect fill="none" x="157" width="338" height="60" y="433" clip-path="url(#clipPath2)"/>
      <text x="309.3711" font-size="16px" y="469.0469" clip-path="url(#clipPath2)" font-family="sans-serif" stroke="none" font-weight="bold" xml:space="preserve">IaaS</text>
    </g>
    <g fill="rgb(255,204,0)" text-rendering="geometricPrecision" shape-rendering="geometricPrecision" transform="matrix(1,0,0,1,-142,-196)" stroke="rgb(255,204,0)">
      <rect x="157" width="338" height="60" y="349" clip-path="url(#clipPath2)" stroke="none"/>
    </g>
    <g text-rendering="geometricPrecision" stroke-miterlimit="1.45" shape-rendering="geometricPrecision" transform="matrix(1,0,0,1,-142,-196)" stroke-linecap="butt">
      <rect fill="none" x="157" width="338" height="60" y="349" clip-path="url(#clipPath2)"/>
      <text x="307.1172" font-size="16px" y="385.0469" clip-path="url(#clipPath2)" font-family="sans-serif" stroke="none" font-weight="bold" xml:space="preserve">PaaS</text>
    </g>
    <g fill="rgb(255,204,0)" text-rendering="geometricPrecision" shape-rendering="geometricPrecision" transform="matrix(1,0,0,1,-142,-196)" stroke="rgb(255,204,0)">
      <rect x="157" width="338" height="60" y="265" clip-path="url(#clipPath2)" stroke="none"/>
    </g>
    <g text-rendering="geometricPrecision" stroke-miterlimit="1.45" shape-rendering="geometricPrecision" transform="matrix(1,0,0,1,-142,-196)" stroke-linecap="butt">
      <rect fill="none" x="157" width="338" height="60" y="265" clip-path="url(#clipPath2)"/>
      <text x="307.4531" font-size="16px" y="301.0469" clip-path="url(#clipPath2)" font-family="sans-serif" stroke="none" font-weight="bold" xml:space="preserve">SaaS</text>
      <text x="273.332" font-size="16px" y="619.0469" clip-path="url(#clipPath2)" font-family="sans-serif" stroke="none" font-weight="bold" xml:space="preserve">Elastyczność</text>
      <text x="273.6211" font-size="16px" y="232.0469" clip-path="url(#clipPath2)" font-family="sans-serif" stroke="none" font-weight="bold" xml:space="preserve">Specializacja</text>
    </g>
    <g fill="rgb(255,204,0)" text-rendering="geometricPrecision" shape-rendering="geometricPrecision" transform="matrix(1,0,0,1,-142,-196)" stroke="rgb(255,204,0)">
      <rect x="157" width="338" height="60" y="515.5" clip-path="url(#clipPath2)" stroke="none"/>
    </g>
    <g text-rendering="geometricPrecision" stroke-miterlimit="1.45" shape-rendering="geometricPrecision" transform="matrix(1,0,0,1,-142,-196)" stroke-linecap="butt">
      <rect fill="none" x="157" width="338" height="60" y="515.5" clip-path="url(#clipPath2)"/>
      <text x="281.3594" font-size="16px" y="551.5469" clip-path="url(#clipPath2)" font-family="sans-serif" stroke="none" font-weight="bold" xml:space="preserve">OnPremise</text>
    </g>
  </g>
</svg>
